<svg viewBox="0 0 448 40" fill="none" xmlns="http://www.w3.org/2000/svg">
<rect x="0.5" y="0.5" width="447" height="39" rx="3.5" stroke="#212121" stroke-opacity="0.2"/>
<path d="M31 14H19C18.175 14 17.5075 14.675 17.5075 15.5L17.5 24.5C17.5 25.325 18.175 26 19 26H31C31.825 26 32.5 25.325 32.5 24.5V15.5C32.5 14.675 31.825 14 31 14ZM30.7 17.1875L25.3975 20.5025C25.1575 20.6525 24.8425 20.6525 24.6025 20.5025L19.3 17.1875C19.1125 17.0675 19 16.865 19 16.6475C19 16.145 19.5475 15.845 19.975 16.1075L25 19.25L30.025 16.1075C30.4525 15.845 31 16.145 31 16.6475C31 16.865 30.8875 17.0675 30.7 17.1875Z" fill="#212121"/>
<path d="M50.7568 25H49.4375V16.127H44.5293V25H43.2168V15.0469H50.7568V25ZM52.7562 21.2334C52.7562 20.5088 52.8975 19.8571 53.18 19.2783C53.4671 18.6995 53.8636 18.2529 54.3695 17.9385C54.8799 17.624 55.461 17.4668 56.1127 17.4668C57.1198 17.4668 57.9333 17.8154 58.5531 18.5127C59.1774 19.21 59.4896 20.1374 59.4896 21.2949V21.3838C59.4896 22.1038 59.3506 22.751 59.0726 23.3252C58.7992 23.8949 58.405 24.3392 57.89 24.6582C57.3796 24.9772 56.7917 25.1367 56.1263 25.1367C55.1237 25.1367 54.3102 24.7881 53.6859 24.0908C53.0661 23.3936 52.7562 22.4707 52.7562 21.3223V21.2334ZM54.0277 21.3838C54.0277 22.2041 54.2168 22.8626 54.5951 23.3594C54.9779 23.8561 55.4883 24.1045 56.1263 24.1045C56.7689 24.1045 57.2793 23.8538 57.6576 23.3525C58.0358 22.8467 58.225 22.1403 58.225 21.2334C58.225 20.4222 58.0313 19.766 57.6439 19.2646C57.2611 18.7588 56.7507 18.5059 56.1127 18.5059C55.4883 18.5059 54.9847 18.7542 54.6019 19.251C54.2191 19.7477 54.0277 20.4587 54.0277 21.3838ZM66.8005 25H65.529V22.3203C64.973 22.4661 64.4034 22.5391 63.82 22.5391C62.8949 22.5391 62.1885 22.3021 61.7009 21.8281C61.2178 21.3542 60.9717 20.6797 60.9626 19.8047V17.5967H62.2273V19.8457C62.2501 20.9486 62.781 21.5 63.82 21.5C64.4034 21.5 64.973 21.4271 65.529 21.2812V17.6035H66.8005V25ZM74.4669 18.6289H71.9854V25H70.7208V18.6289H68.2872V17.6035H74.4669V18.6289ZM80.2944 25C80.2215 24.8542 80.1622 24.5944 80.1166 24.2207C79.5288 24.8314 78.8269 25.1367 78.0112 25.1367C77.282 25.1367 76.6827 24.9316 76.2133 24.5215C75.7485 24.1068 75.5161 23.5827 75.5161 22.9492C75.5161 22.179 75.8077 21.582 76.3911 21.1582C76.9789 20.7298 77.8038 20.5156 78.8657 20.5156H80.0961V19.9346C80.0961 19.4925 79.964 19.1416 79.6996 18.8818C79.4353 18.6175 79.0457 18.4854 78.5307 18.4854C78.0795 18.4854 77.7013 18.5993 77.3959 18.8271C77.0906 19.055 76.9379 19.3307 76.9379 19.6543H75.6664C75.6664 19.2852 75.7963 18.9297 76.0561 18.5879C76.3204 18.2415 76.6759 17.9681 77.1225 17.7676C77.5737 17.5671 78.0681 17.4668 78.6059 17.4668C79.4581 17.4668 80.1258 17.681 80.6088 18.1094C81.0919 18.5332 81.3426 19.1188 81.3608 19.8662V23.2705C81.3608 23.9495 81.4474 24.4896 81.6205 24.8906V25H80.2944ZM78.1957 24.0361C78.5922 24.0361 78.9682 23.9336 79.3237 23.7285C79.6791 23.5234 79.9366 23.2568 80.0961 22.9287V21.4111H79.1049C77.5554 21.4111 76.7807 21.8646 76.7807 22.7715C76.7807 23.168 76.9129 23.4779 77.1772 23.7012C77.4415 23.9245 77.781 24.0361 78.1957 24.0361Z" fill="#757575"/>
</svg>
